<?xml version="1.0" encoding="utf-8"?>
<!-- Generator: Adobe Illustrator 19.0.0, SVG Export Plug-In . SVG Version: 6.00 Build 0)  -->
<svg version="1.1" id="Guides" xmlns="http://www.w3.org/2000/svg" xmlns:xlink="http://www.w3.org/1999/xlink" x="0px" y="0px"
	 viewBox="0 0 1024 768" style="enable-background:new 0 0 1024 768;" xml:space="preserve">
<style type="text/css">
	.st0{fill:#FCFCFC;}
	.st1{font-family:'Verdana-Bold';}
	.st2{font-size:74px;}
	.st3{letter-spacing:10.4;}
</style>
<g id="XMLID_1_">
	<g id="XMLID_79_">
		<path id="XMLID_494_" d="M674.2,331.8c12.5-0.2,25-0.1,37.4,1.8c-9.2,2.1-18.6,2.5-27.9,2.9c-59.2,3-118.5,4.8-177.7,7
			c-54.7,2.1-109.4,4.4-164,6.5c-2.4,0.1-4.7,0-7.1,0c-0.9,0-2.1,0.1-2.6-1c-0.6-1.3,0.3-2.1,1.1-2.8c4-3.3,7.8-6.7,12-9.6
			c36.1-25.6,75.9-43.1,118.7-53.8c42.1-10.5,84.7-13,127.8-6.7c0.7,0.1,1.3,0.4,1.9,0.6c-0.3,0.5-0.7,0.7-1.1,0.1
			c0.1,0.6,0.5,0.5,0.9,0.5c0.8,0,1.6,0.2,2.4-0.3c16.4,2.1,32.3,6.3,48,11.4c23.2,7.6,45.4,17.5,66,30.7c2,1.3,5.8,2.5,4.2,5.6
			c-1.8,3.6-4.9,0.7-7.2-0.4c-22.6-10.9-45.5-20.9-69.6-27.9c-14-4-28.2-6.8-42.5-9.5c0.3-0.6,1-0.3,1.3-0.7
			c-0.9,0.3-1.9-0.2-2.8,0.5c-10.1-0.9-20.1-2.2-30.2-2.6c-68.8-2.8-132.3,14.7-191.4,49.3c-2,1.2-4,2.4-6.1,3.6
			c0.8,1.1,1.8,0.5,2.6,0.5c81.2-2.8,162.5-5.3,243.8-5.9c1.8,0,3.6,0.1,5.4,0.2c1.2,0.6,2.4,0.4,3.7,0.4c16.4,0,32.8,0,49.2,0
			C671.8,332.2,673.1,332.4,674.2,331.8z"/>
		<path id="XMLID_493_" d="M486.9,256.8c11.7-2.4,23.5-3.3,35.4-4c61.5-3.6,121.2,6.2,179.7,24.5c30.3,9.5,59.8,21,87.6,36.4
			c4,2.2,8.2,4.3,11.9,8.5c-4.6-0.4-7.9-2-11.3-3.3c-35.8-14.1-72-27.1-109.3-36.6c-49-12.4-98.6-19.4-149.2-18
			c-64.5,1.9-124.4,19-179.4,53.1c-5.7,3.5-11.3,7.1-17.3,10c-0.6,0.3-1,0.3-1.7-0.1c0.5-1.9,2.1-3,3.4-4.2c24-21.8,52-37,82-48.7
			c20.8-8.1,42.4-13.6,64.4-17.3c0.8-0.1,1.6-0.1,2.5-0.1c0.3,0.3,0.7,0.4,1.1,0.3c0.3,0,0.6,0.1,0.9-0.1
			C487.2,257.2,487,257,486.9,256.8z"/>
		<path id="XMLID_489_" d="M298.6,336.9c-1.4,0.8-2.9,0.7-4.5,0.6c-1.3-0.6-2.5-0.3-3.4-0.3c0.2-0.1,0.8-0.1,1.2,0.5
			c-10.4,1.3-20.8,2.7-31.3,3.8c-20.8,2.3-41.5,4.6-62.2,7.6c-0.5,0.1-1.1,0-1.6,0c-0.4-0.3-1-0.4-1.5-0.3c-0.3,0-0.7-0.2-1,0.1
			c0.4,0,0.8,0.1,1,0.4c-11.8,2.2-23.7,4.2-35.4,6.6c-13.4,2.8-26.6,6.5-39,12.3c-12.1,5.7-21.9,13.9-28.3,25.8
			c-0.7,1.4-1.4,3.9-3.1,3.3c-1.8-0.7-0.9-3.2-0.6-4.8c2.2-11.5,9-20,18-26.9c13.3-10.1,28.7-15.3,44.5-19.6c9.9-2.7,19.9-5,30-6.4
			c6.5-0.9,12.9-2.9,19.6-2.8c0.8,0.7,1.9,0.2,2.7,0.5c-0.4-0.3-1.1-0.1-1.3-0.6c9.9-2.1,20-2.8,30-3.7c27.7-2.5,55.5-4.5,83.4-3.6
			c3.3,0.1,6.6,0.1,10.6,2.2c-9.1,3.5-17.8,4.4-26.5,5.2c-0.3-0.3-0.6-0.4-1-0.4c-0.5,0-1,0-1.5-0.1
			C297.8,336.5,298.4,336.3,298.6,336.9z"/>
		<path id="XMLID_488_" d="M853.8,375.1c-5.6-10.2-11.2-20.5-17.2-31.4c12.3,0,23.8,0.4,35.3,2c0-7-3.8-12.3-10.9-13.9
			c-9-2.1-18.4-1.8-27.6-3.3c-2.7-0.5-5.5-0.6-8.1-1.6c0.2-0.3,0.5-0.4,0.8-0.5c-0.8-0.1-1.5-0.2-2.2,0.3c-3.1-0.2-5.9-1.2-8.7-2.4
			c-1.3-0.6-2.8-1.3-2.8-2.8c0-1.8,1.7-2.4,3.1-2.9c3.9-1.4,8.1-1.9,12.2-2.2c11.3-0.7,22.6-1.9,34-0.5c13.7,1.7,23.2,10.1,26,23.7
			c2.7,13.1,5.4,26.3,6.6,39.7c0.2,2.7,0.3,5.5,0.1,8.3c-0.1,1.8,0,4.3-2.3,4.9c-2.3,0.6-3.3-1.6-4.3-3.2c-2.2-3.4-3.8-7.1-5.1-10.8
			c-0.7-2.1-1.8-2.8-3.9-2.7c-3.6,0.2-7.2,0-10.8,0C863.3,374.8,858.5,375.9,853.8,375.1z"/>
		<path id="XMLID_480_" d="M674.2,331.8c-1,1.1-2.3,0.8-3.5,0.8c-16.5,0-33,0-49.6,0c-1.2,0-2.5,0.3-3.5-0.8
			C636.5,331.4,655.4,331.3,674.2,331.8z"/>
		<path id="XMLID_473_" d="M853.8,375.1c4.7,0,9.5-0.9,14.2,0.6c-3.8,0.2-7.6,0.3-11.4,0.4C855.5,376.2,854.3,376.6,853.8,375.1z"/>
		<path id="XMLID_471_" d="M292,337.7c-0.6-0.1-1.3-0.3-2.6-0.5c2.1-0.6,3.5-0.8,4.8,0.3C293.4,337.6,292.7,337.6,292,337.7z"/>
		<path id="XMLID_470_" d="M823.9,326.6c0.9-1,2.1-0.8,3.3-0.5c-0.5,0.9-1.3,0.4-1.9,0.7C824.9,326.8,824.4,326.7,823.9,326.6z"/>
		<path id="XMLID_469_" d="M593.6,286.8c0.9-1.1,2-0.9,3.9-0.4c-1.2,0.3-1.9,0.4-2.5,0.6C594.5,286.9,594,286.8,593.6,286.8z"/>
		<path id="XMLID_467_" d="M195.4,349.3c-0.6-0.1-1.3-0.2-2.4-0.4c1.7-0.7,2.8-0.8,3.9,0.2C196.4,349.2,195.9,349.2,195.4,349.3z"/>
		<path id="XMLID_464_" d="M202.5,336.6c0.6,0.1,1.3,0.2,2.5,0.5c-1.8,0.6-2.9,0.8-3.9-0.3C201.5,336.7,202,336.7,202.5,336.6z"/>
		<path id="XMLID_463_" d="M298.6,336.9c-0.6-0.1-1.3-0.3-2.6-0.5c1.8-0.5,2.9-0.9,3.9,0.4C299.5,336.8,299.1,336.8,298.6,336.9z"/>
		<path id="XMLID_462_" d="M596,277c-0.7,0.9-1.6,0.7-2.6,0.7c-0.3,0-0.9,0-0.6-0.5c0.1-0.3,0.7-0.3,1-0.5
			C594.6,276.8,595.3,276.9,596,277z"/>
		<path id="XMLID_461_" d="M486.9,256.8c0.6,0.1,1.3,0.2,2.6,0.5c-1.8,0.6-2.9,0.9-4-0.3C485.9,256.9,486.4,256.8,486.9,256.8z"/>
		<path id="XMLID_378_" class="st0" d="M878.7,368.2c-6.3,0-12.2,0-18.2,0c-1.2,0-1.7-0.6-2.2-1.5c-2.8-5.2-5.7-10.3-8.7-15.8
			c7.6-0.5,14.8-0.7,21.8-1.9c1.3-0.2,2,0.1,2.4,1.5C875.4,356.4,877.1,362.2,878.7,368.2z"/>
	</g>
	<g id="XMLID_80_">
		<path id="XMLID_130_" d="M177,489.3c4.1-5.8,5.6-12.1,5.5-19c-0.1-6.8,0.2-13.7,0.3-20.6c0.2-16.4-9.6-26.1-25.9-25.8
			c-19.6,0.3-39.3,0.7-58.9,1c-2,0-4,0-6.7,0c8.2-13.5,18.8-23.6,32.4-30.3c40.1-20,86.9-2.2,102.1,38.8c1.1,3,2.4,3.7,5.4,3.7
			c93.4-1.7,423.7-3.3,517.1-4.9c3.1-0.1,4.4-1,5.5-3.9c7.9-20.7,23.4-34.4,42.6-44.1c3.9-2,8.7-2.3,13.1-3.3
			c3.3,2.9,5.9-0.8,8.9-1.3c5.8-0.9,11.5-0.9,17.2,0.3c1.2,0.8,2.4,1,3.8,0.6c21.9,3.6,37.4,16,49.7,35.2
			c-18.5,0.2-35.9,0.4-53.2,0.6c-5,0.1-10,0-15,0.3c-13.7,0.6-24,10.6-24.6,24.3c-0.4,9.1-0.6,18.2-0.5,27.2
			c0.2,13.7,10.4,23.4,24.6,23.2c20.4-0.2,40.8-0.7,61.1-1c1.6,0,3.3-0.5,6.3-1c-7.3,12.6-16.1,21.3-26.9,28
			c-40.2,24.8-91.6,8.3-107.9-34.7c-1.4-3.6-3-4.4-6.6-4.3c-92.8,1.7-422.6,3.3-515.4,4.9c-3.4,0.1-4.9,0.8-6.4,4.3
			c-11.9,27.3-32.4,44.2-61.8,48.1c-29.5,3.9-53-6.9-70-30.8c-1-1.4-2.6-2.5-2.9-4.7c21.6-0.4,43.1-0.9,64.6-1.1
			c6.7-0.1,12.8-1.6,18.4-5.5C175.1,492.7,176.5,491.4,177,489.3z"/>
	</g>
	<text id="XMLID_81_" transform="matrix(1.06 0 0 1 297.2409 426.8461)" class="st1 st2 st3">Adam’s</text>
	<text id="XMLID_3_" transform="matrix(1.06 0 0 1 303.2409 538.8221)" class="st1 st2 st3">Garage</text>
</g>
</svg>
